<?xml version="1.0" encoding="UTF-8"?>
<!DOCTYPE svg PUBLIC "-//W3C//DTD SVG 1.1//EN" "http://www.w3.org/Graphics/SVG/1.1/DTD/svg11.dtd">
<!-- Creator: CorelDRAW X6 -->
<svg xmlns="http://www.w3.org/2000/svg" xml:space="preserve" width="102.822mm" height="102.822mm" version="1.1" style="shape-rendering:geometricPrecision; text-rendering:geometricPrecision; image-rendering:optimizeQuality; fill-rule:evenodd; clip-rule:evenodd"
viewBox="0 0 7969 7969"
 xmlns:xlink="http://www.w3.org/1999/xlink">
 <defs>
  <style type="text/css">
   <![CDATA[
    .str0 {stroke:white;stroke-width:218.733}
    .fil1 {fill:none}
    .fil0 {fill:white;fill-rule:nonzero}
   ]]>
  </style>
 </defs>
 <g id="Warstwa_x0020_1">
  <metadata id="CorelCorpID_0Corel-Layer"/>
  <path class="fil0" d="M2509 4608l779 -1173c144,144 1239,1238 1275,1275l-1331 1793 360 -1908 -1083 13zm900 -1354l1188 -1788 -278 2050 1141 -14 -768 1035c-144,-140 -1188,-1188 -1283,-1283z"/>
  <path class="fil1 str0" d="M1097 1399l5481 5481"/>
  <path class="fil1 str0" d="M3985 109c2140,0 3875,1735 3875,3876 0,2140 -1735,3875 -3875,3875 -2141,0 -3876,-1735 -3876,-3875 0,-2141 1735,-3876 3876,-3876z"/>
 </g>
</svg>
